/vscmnt/brussel_pixiu_data/_data_brussel/112/vsc11236/PredSimResults/SUBJ04opt3D/weighted/trackIG/worker_01.mot
version=1
nRows=10
nColumns=50
inDegrees=yes
endheader
                time	         pelvis_tilt	         pelvis_list	     pelvis_rotation	           pelvis_tx	           pelvis_ty	           pelvis_tz	       hip_flexion_r	     hip_adduction_r	      hip_rotation_r	        knee_angle_r	       ankle_angle_r	         mtp_angle_r	       hip_flexion_l	     hip_adduction_l	      hip_rotation_l	        knee_angle_l	       ankle_angle_l	         mtp_angle_l	    lumbar_extension	      lumbar_bending	     lumbar_rotation	 ercspn_r/activation	 intobl_r/activation	 extobl_r/activation	    abd_r/activation	    add_r/activation	hamstrings_r/activation	bifemsh_r/activation	glut_max_r/activation	iliopsoas_r/activation	rect_fem_r/activation	  vasti_r/activation	gastroc_r/activation	 soleus_r/activation	tib_ant_r/activation	 ercspn_l/activation	 intobl_l/activation	 extobl_l/activation	    abd_l/activation	    add_l/activation	hamstrings_l/activation	bifemsh_l/activation	glut_max_l/activation	iliopsoas_l/activation	rect_fem_l/activation	  vasti_l/activation	gastroc_l/activation	 soleus_l/activation	tib_ant_l/activation	
          0.00000000	         -1.69517811	          0.23393395	          8.87789116	          0.00000000	          0.88351562	         -0.01111630	         28.63757619	         -3.18973334	        -10.85618500	        -11.24470308	          3.97750853	          0.23144791	        -12.39852943	         -0.62452315	         -7.91109542	         -7.63642878	         13.26687542	         19.73960761	        -13.83409756	         -3.69082233	         -7.74234190	          0.04235434	          0.22832536	          0.02214433	          0.01000008	          0.27500571	          0.06647976	          0.01000417	          0.01598973	          0.17457706	          0.03888856	          0.04678923	          0.01000006	          0.01000002	          0.33101044	          0.01841437	          0.01000002	          0.01000003	          0.06708198	          0.01000039	          0.02898445	          0.21058812	          0.01812435	          0.01971562	          0.01000173	          0.01000010	          0.24785348	          0.25037932	          0.01000004	
          0.01335945	         -1.80092500	          0.22479979	          8.66137752	          0.01534738	          0.88125800	         -0.01072402	         28.49558686	         -3.03723207	        -11.07357329	        -12.44309471	          3.78646852	          0.22467830	        -13.06709195	         -0.74390483	         -8.58554948	         -8.15119680	         13.01017069	         21.16267804	        -13.33193454	         -3.09292305	         -7.82064679	          0.03464127	          0.22671603	          0.01811165	          0.01000001	          0.27827694	          0.06890406	          0.01613485	          0.02463352	          0.14278493	          0.03180660	          0.03826862	          0.01804286	          0.01930663	          0.33358943	          0.02442635	          0.01000004	          0.01000007	          0.05486573	          0.01000091	          0.02372592	          0.17223817	          0.01482393	          0.01612534	          0.01000020	          0.01000028	          0.22861967	          0.25006171	          0.01000001	
          0.02671891	         -1.89129175	          0.15620821	          8.40210241	          0.03108721	          0.87914997	         -0.01027821	         28.24402678	         -2.86904934	        -11.18355794	        -13.59173555	          3.46244447	          0.22243652	        -13.68456751	         -0.93387719	         -9.29117935	         -8.82788485	         12.67951533	         22.62279907	        -12.79424550	         -2.40388119	         -7.87288220	          0.02833291	          0.20965998	          0.01481336	          0.02562072	          0.22760054	          0.07026948	          0.01321896	          0.02939718	          0.11678244	          0.02601433	          0.06110909	          0.01475712	          0.01579072	          0.36214958	          0.02624029	          0.01000002	          0.01000011	          0.04487416	          0.01000041	          0.01940664	          0.14087207	          0.01212438	          0.01318912	          0.01000038	          0.01000016	          0.18698595	          0.23949366	          0.01000003	
          0.04007836	         -1.96715784	          0.04278276	          8.08886619	          0.04702266	          0.87737808	         -0.00972161	         27.95309508	         -2.66954914	        -11.39005823	        -14.65671588	          3.02368332	          0.20364234	        -14.18426429	         -1.18730069	        -10.03510046	         -9.76265082	         12.23683397	         24.11784467	        -12.25141139	         -1.64709131	         -7.88973199	          0.02363804	          0.17147892	          0.01211573	          0.03904972	          0.20729810	          0.07244527	          0.01081387	          0.02404397	          0.09551526	          0.02127689	          0.13317212	          0.01206978	          0.01291510	          0.39017319	          0.03392554	          0.01000001	          0.01000006	          0.03670216	          0.01000035	          0.01588083	          0.11521799	          0.01000019	          0.01078758	          0.01000026	          0.01000021	          0.15293405	          0.22574594	          0.01000001	
          0.05343782	         -2.02892436	         -0.11356810	          7.73167963	          0.06303253	          0.87612973	         -0.00904212	         27.60110018	         -2.43501817	        -11.71127240	        -15.65223511	          2.72122831	          0.18097835	        -14.50335404	         -1.51742970	        -10.80665387	        -11.04404784	         11.62800095	         25.66546052	        -11.72063862	         -0.83146074	         -7.87133358	          0.03119916	          0.14025099	          0.01000007	          0.07186763	          0.18115990	          0.07123216	          0.01000678	          0.01967193	          0.07812103	          0.01740219	          0.19166712	          0.01000022	          0.01056319	          0.40015942	          0.05323906	          0.01000002	          0.01000005	          0.03001836	          0.01000038	          0.02034259	          0.09423575	          0.01000035	          0.01000056	          0.01000027	          0.01000023	          0.12508332	          0.19466467	          0.01000001	
          0.06679727	         -2.07765798	         -0.30892169	          7.34440226	          0.07897040	          0.87560123	         -0.00823309	         27.16424463	         -2.15145179	        -12.07836027	        -16.54299171	          2.64518548	          0.15855115	        -14.56809798	         -1.94018368	        -11.59962622	        -12.77528272	         10.80271432	         27.26311868	        -11.21881509	          0.03092696	         -7.82055242	          0.03373085	          0.11470996	          0.01000011	          0.09615221	          0.16092063	          0.07094201	          0.01000114	          0.03281932	          0.06389445	          0.01423311	          0.22085746	          0.01000063	          0.01000043	          0.39643396	          0.08605297	          0.01000003	          0.01000004	          0.02455173	          0.01000051	          0.04605974	          0.07707457	          0.01530517	          0.01000049	          0.01000017	          0.01285347	          0.10230446	          0.15921441	          0.01000001	
          0.08015673	         -2.11396683	         -0.53410480	          6.94143206	          0.09470724	          0.87589642	         -0.00729552	         26.64378151	         -1.81184640	        -12.40695990	        -17.31641251	          2.78174644	          0.14668802	        -14.32746564	         -2.46562017	        -12.41279460	        -15.01903024	          9.71271248	         28.88367250	        -10.75905091	          0.92244626	         -7.74376126	          0.03344618	          0.09382019	          0.01000018	          0.11084726	          0.14879461	          0.07332220	          0.01002148	          0.02684329	          0.05225867	          0.01164116	          0.23124976	          0.01000019	          0.01000008	          0.37330995	          0.09841042	          0.01000007	          0.01000004	          0.02008063	          0.02241941	          0.07840966	          0.06303860	          0.01883041	          0.01000029	          0.01000010	          0.01827676	          0.08367385	          0.13021996	          0.01000001	
          0.09351618	         -2.13812977	         -0.76638601	          6.53413369	          0.11017330	          0.87698350	         -0.00624459	         26.03160151	         -1.42578032	        -12.63174508	        -17.94331081	          3.09307835	          0.16493129	        -13.76657054	         -3.08520378	        -13.23472239	        -17.78210476	          8.32499949	         30.45374992	        -10.34881923	          1.81328821	         -7.64579585	          0.03248458	          0.07673465	          0.01000039	          0.11592735	          0.15985710	          0.07753110	          0.01000189	          0.03304546	          0.04274188	          0.01000010	          0.24158055	          0.01000091	          0.01000113	          0.33934537	          0.08998877	          0.01000021	          0.01000004	          0.01642376	          0.12686544	          0.09103877	          0.05155873	          0.01540126	          0.01000022	          0.01000008	          0.01494848	          0.06843605	          0.10650567	          0.01000001	
          0.10687563	         -2.15068485	         -0.97118182	          6.12821633	          0.12530550	          0.87876924	         -0.00510692	         25.29889048	         -1.01974386	        -12.72715252	        -18.34760026	          3.46130992	          0.24916476	        -12.86738761	         -3.77790950	        -14.05918058	        -21.07913489	          6.62950899	         31.83465277	         -9.99687200	          2.66370008	         -7.52569249	          0.02656962	          0.06276054	          0.01000100	          0.11795899	          0.15814659	          0.08355789	          0.01000299	          0.02703484	          0.03495818	          0.01000010	          0.23443269	          0.01000037	          0.01000019	          0.30870121	          0.08127084	          0.01827829	          0.01000005	          0.01343284	          0.15189361	          0.10374780	          0.04216950	          0.01259657	          0.01000022	          0.01000005	          0.01222625	          0.05597320	          0.08710998	          0.01000002	
          0.12023509	         -2.15148518	         -1.11303660	          5.72644682	          0.14005052	          0.88110044	         -0.00390649	         24.44468083	         -0.63954222	        -12.72063356	        -18.51538879	          3.80092687	          0.39880938	        -11.62558084	         -4.52398851	        -14.89333904	        -24.91251445	          4.73259834	         32.65776319	         -9.71137526	          3.43233305	         -7.37871179	          0.02173117	          0.05133126	          0.01000163	          0.11663831	          0.15857061	          0.08901194	          0.01000194	          0.03102816	          0.02859197	          0.01000009	          0.22339936	          0.01000024	          0.01000014	          0.28093384	          0.06647797	          0.01495002	          0.01000007	          0.01098660	          0.20209744	          0.08485740	          0.03449034	          0.01030264	          0.01000021	          0.01000004	          0.01000003	          0.04577995	          0.07124643	          0.02028965	
